<?xml version="1.0" encoding="utf-8"?>
<!-- Generator: Adobe Illustrator 19.1.0, SVG Export Plug-In . SVG Version: 6.00 Build 0)  -->
<svg version="1.1" id="Layer_1" xmlns="http://www.w3.org/2000/svg" xmlns:xlink="http://www.w3.org/1999/xlink" x="0px" y="0px"
	 viewBox="0 0 18 18" enable-background="new 0 0 18 18" xml:space="preserve">
<g>
	<path fill="#231F20" d="M17.7035,15.352l-4.6126-4.6313c0.7029-1.1578,1.0543-2.3585,1.0543-3.645
		c0-1.9726-0.6589-3.645-2.0646-5.0173C10.6748,0.6861,9.0055,0,7.0726,0C5.1397,0,3.4704,0.6861,2.0647,2.0583
		C0.7029,3.4306,0,5.103,0,7.0756s0.6589,3.645,2.0647,5.0173c1.4057,1.3723,3.075,2.0583,5.0079,2.0583
		c1.23,0,2.46-0.343,3.6461-1.0292l4.6125,4.5884c0.3954,0.386,0.7907,0.386,1.1861,0l1.1861-1.2007
		C18.0988,16.081,18.0988,15.6951,17.7035,15.352z M10.4113,10.3776c-0.9225,0.9006-2.0208,1.3723-3.3386,1.3723
		S4.6566,11.321,3.734,10.3776C2.8115,9.4341,2.3723,8.3192,2.3723,7.0327c0-1.3293,0.4393-2.4014,1.3618-3.3448
		c0.9225-0.9005,2.0208-1.3722,3.3386-1.3722s2.4161,0.4288,3.3386,1.3722s1.4057,2.0584,1.4057,3.3448
		C11.817,8.3621,11.3337,9.4771,10.4113,10.3776z"/>
	<polygon fill="#231F20" points="8,4 6,4 6,6 4,6 4,8 6,8 6,10 8,10 8,8 10,8 10,6 8,6 	"/>
</g>
</svg>
